<svg width="17" height="17" viewBox="0 0 17 17" fill="none" xmlns="http://www.w3.org/2000/svg">
<path d="M14.8759 0H2.12513C0.925206 0 0 0.925206 0 2.12513V14.8749C0 16.0748 0.925206 17 2.12513 17H14.8749C16.0748 17 17 16.0748 17 14.8749V2.12513C17.0011 0.925206 16.0748 0 14.8759 0ZM8.51316 5.16073C10.3983 5.16073 11.9266 6.64169 11.9266 8.4679C11.9266 10.2941 10.3983 11.7751 8.51316 11.7751C6.62906 11.7751 5.10074 10.293 5.10074 8.4679C5.10074 6.64169 6.62906 5.16073 8.51316 5.16073ZM14.8759 14.3444C14.8759 14.717 14.717 14.8759 14.3444 14.8759H2.65668C2.28512 14.8759 2.12513 14.717 2.12513 14.3444V6.90694L3.44926 7.19534C3.30716 7.65742 3.23033 8.14581 3.23033 8.65315C3.23033 11.4782 5.59649 13.7718 8.5121 13.7718C11.4298 13.7718 13.7949 11.4793 13.7949 8.65315C13.7949 8.14581 13.7181 7.65742 13.576 7.19534L14.8749 6.90694L14.8759 14.3444ZM14.8759 4.78181C14.8759 5.07547 14.638 5.31335 14.3444 5.31335H12.2192C11.9256 5.31335 11.6877 5.07547 11.6877 4.78181V2.65668C11.6877 2.36301 11.9256 2.12513 12.2192 2.12513H14.3444C14.638 2.12513 14.8759 2.36301 14.8759 2.65668V4.78181Z" fill="#CCCCCC"/>
</svg>
