<svg width="15" height="17" viewBox="0 0 15 17" fill="none" xmlns="http://www.w3.org/2000/svg">
<g clip-path="url(#clip0_101_70)">
<path d="M15 6.96967C13.526 6.97316 12.0881 6.51729 10.8894 5.66645V11.6005C10.889 12.6996 10.5503 13.7723 9.91848 14.6753C9.28668 15.5783 8.39195 16.2684 7.35392 16.6535C6.3159 17.0386 5.18405 17.1003 4.10973 16.8303C3.03542 16.5602 2.06983 15.9714 1.3421 15.1425C0.614364 14.3135 0.159164 13.2841 0.0373651 12.1917C-0.0844333 11.0993 0.132976 9.99603 0.660521 9.02947C1.18807 8.06292 2.0006 7.27911 2.98948 6.78286C3.97836 6.28661 5.09645 6.10157 6.19424 6.25248V9.23711C5.69189 9.08041 5.15246 9.08513 4.65297 9.2506C4.15349 9.41606 3.7195 9.7338 3.41298 10.1585C3.10646 10.5831 2.94308 11.0929 2.94618 11.6152C2.94929 12.1374 3.1187 12.6453 3.43025 13.0663C3.74179 13.4873 4.17953 13.8 4.68094 13.9596C5.18236 14.1192 5.72181 14.1177 6.22227 13.9551C6.72272 13.7925 7.15858 13.4773 7.46761 13.0545C7.77664 12.6316 7.94303 12.1227 7.94301 11.6005V0H10.8894C10.8874 0.246746 10.9082 0.493155 10.9517 0.736113C11.0541 1.27848 11.267 1.79443 11.5773 2.25241C11.8877 2.71039 12.289 3.10077 12.7567 3.39967C13.4222 3.83599 14.2023 4.06855 15 4.06838V6.96967Z" fill="#CCCCCC"/>
</g>
<defs>
<clipPath id="clip0_101_70">
<rect width="15" height="17" fill="white"/>
</clipPath>
</defs>
</svg>
